<svg fill="#404040" xmlns="http://www.w3.org/2000/svg" viewBox="0 0 300 102.1"><path d="M188.1 83.8l1.9-1.9c-4.6-4.6-12.1-4.6-16.7 0-2.2 2.2-3.5 5.2-3.5 8.4s1.2 6.1 3.5 8.4 5.2 3.5 8.4 3.5 6.1-1.2 8.4-3.5l-1.9-1.9c-3.6 3.6-9.4 3.6-13 0-3.6-3.6-3.6-9.4 0-13 3.5-3.6 9.3-3.6 12.9 0zM201.3 78.4h-2.6v23.7h17.1v-2.6h-14.5zM268.4 91.6c0 4.4-3.5 7.9-7.9 7.9s-7.9-3.5-7.9-7.9V78.4H250v13.2c0 5.8 4.7 10.5 10.5 10.5S271 97.4 271 91.6V78.4h-2.6v13.2zM97.4 86.3c0-4.4-3.5-7.9-7.9-7.9H79v23.7h2.6v-21h7.9c2.9 0 5.3 2.4 5.3 5.3s-2.4 5.3-5.3 5.3h-4l7.4 10.5h3.2l-5.6-8c3.9-.6 6.9-3.9 6.9-7.9zM54 102.1h17.1v-2.6H56.6v-7.9h11.8V89H56.6v-7.9h14.5v-2.7H54zM0 102.1h17.1v-2.6H2.6v-7.9h11.9V89H2.6v-7.9h14.5v-2.7H0zM114.5 91.6h6.6v5.1l-.1.1c-3.6 3.6-9.4 3.6-13 0-3.6-3.6-3.6-9.4 0-13 3.6-3.6 9.4-3.6 13 0l1.9-1.9c-4.6-4.6-12.1-4.6-16.7 0s-4.6 12.1 0 16.7c2.3 2.3 5.3 3.5 8.4 3.5 3 0 6.1-1.2 8.4-3.5.3-.3.6-.6.8-.9V89h-9.2l-.1 2.6zM43.4 99.3L28.8 78.4H25v23.7h2.6V81.3l14.6 20.8H46V78.4h-2.6zM149.3 78.4l-8.5 12.2-8.5-12.2h-3.2l10.4 14.9v8.8h2.6v-8.8l10.4-14.9zM231.6 78.4c-6.5 0-11.8 5.3-11.8 11.8s5.3 11.8 11.8 11.8c6.5 0 11.8-5.3 11.8-11.8 0-6.5-5.3-11.8-11.8-11.8zm0 21.1c-5.1 0-9.2-4.1-9.2-9.2s4.1-9.2 9.2-9.2 9.2 4.1 9.2 9.2-4.1 9.2-9.2 9.2zM288.2 78.4H279v23.7h9.2c6.5 0 11.8-5.3 11.8-11.8 0-6.6-5.3-11.9-11.8-11.9zm0 21.1h-6.6V81.1h6.6c5.1 0 9.2 4.1 9.2 9.2s-4.1 9.2-9.2 9.2z"/><g><path d="M178.8 16.7c-1.1 0-2.1.1-3.1.2-1-2.4-2.4-4.6-4-6.6C166.3 3.7 158.4 0 150 0c-6 0-11.8 1.9-16.6 5.5-4 3-7.1 6.9-9 11.4-1-.2-2.1-.2-3.1-.2-10.8 0-19.6 8.8-19.6 19.6s8.8 19.6 19.6 19.6H138c9.4 0 15-8 21-16.5 3.1-4.4 6.3-8.9 10.2-12.8 1.6-1.6 3.5-2.7 5.6-3.4 1.3-.4 2.7-.6 4.1-.6 7.6 0 13.7 6.2 13.7 13.7S186.4 50 178.8 50v5.8c10.8 0 19.6-8.8 19.6-19.6s-8.8-19.5-19.6-19.5zm-13.9 5.7c-4.3 4.3-7.8 9.2-10.9 13.6-5.5 7.8-9.8 14-16.2 14h-16.7c-7.6 0-13.7-6.2-13.7-13.7s6.2-13.7 13.7-13.7c1.4 0 2.8.2 4.1.6l2.8.9.9-2.8c1.4-4.4 4.2-8.3 7.9-11C140.6 7.5 145.2 6 150 6c6.7 0 12.9 3 17.1 8.1 1.2 1.5 2.2 3 3 4.7-1.9.9-3.7 2.1-5.2 3.6z"/></g></svg>
